<svg version="1" xmlns="http://www.w3.org/2000/svg" width="933.333" height="933.333" viewBox="0 0 700.000000 700.000000"><path d="M0 350v350h700V0H0v350zm375.7-216.2c61.2 20.5 113.5 96.7 128.2 186.8 5.8 35.8 5.3 80.2-1.4 112.9-7.9 38.7-23.7 69.9-47.4 93.6-21 20.9-44.1 33.6-73.1 40.1-9.3 2-13 2.3-32.5 2.3-20.2-.1-22.9-.3-33.1-2.7-19.6-4.6-39.9-13.8-55.3-25-10-7.3-27.2-25.5-34.7-36.8-24.6-36.9-35.6-82.5-34.1-140.5 1.3-49.4 11.4-90.9 32.1-132 24.7-49 60.6-85.1 97.3-97.7 12.4-4.3 15.5-4.7 30.8-4.4 12.5.3 15 .7 23.2 3.4z"/></svg>